<svg xmlns="http://www.w3.org/2000/svg" width="1200" height="630" viewBox="0 0 1200 630" role="img" aria-labelledby="title desc">
  <title id="title">Python Basics for Data Science</title>
  <desc id="desc">Feature image showing a course card for Python Basics for Data Science by IBM.</desc>
  <defs>
    <linearGradient id="bg" x1="0" y1="0" x2="1" y2="1">
      <stop offset="0%" stop-color="#f6f8fc"/>
      <stop offset="100%" stop-color="#eef3f8"/>
    </linearGradient>
    <filter id="shadow" x="-20%" y="-20%" width="140%" height="140%">
      <feDropShadow dx="0" dy="10" stdDeviation="18" flood-color="#0b2940" flood-opacity="0.12"/>
    </filter>
  </defs>

  <rect width="1200" height="630" fill="url(#bg)"/>
  <rect x="18" y="18" width="1164" height="594" rx="18" fill="#ffffff" stroke="#d9e2ec" filter="url(#shadow)"/>

  <g transform="translate(86 118)">
    <rect x="0" y="0" width="200" height="200" rx="40" fill="#356fa8"/>
    <rect x="82" y="82" width="200" height="200" rx="40" fill="#ffd24a"/>
    <path d="M147 0c52 0 53 24 53 48v37h-105c-16 0-29 13-29 29v57H0v-57C0 42 36 0 108 0h39z" fill="#3d7eb8"/>
    <path d="M136 82h81c72 0 108 42 108 114v57h-66v-57c0-16-13-29-29-29H136V82z" fill="#ffcf41"/>
    <circle cx="69" cy="34" r="12" fill="#ffffff"/>
    <circle cx="213" cy="248" r="12" fill="#ffffff"/>
    <rect x="0" y="83" width="74" height="10" rx="5" fill="#ffffff"/>
    <rect x="126" y="239" width="74" height="10" rx="5" fill="#ffffff"/>
  </g>

  <g transform="translate(414 112)">
    <text x="0" y="0" font-family="Segoe UI, Arial, sans-serif" font-size="38" font-weight="700" fill="#0a0f18">
      Python Basics for Data Science
    </text>
    <text x="0" y="58" font-family="Segoe UI, Arial, sans-serif" font-size="20" fill="#32475b">
      IBM • PY0101EN • Access expires May 16, 2026
    </text>

    <g transform="translate(0 118)">
      <rect width="650" height="170" rx="20" fill="#f7fafc" stroke="#dbe6ef"/>
      <text x="28" y="48" font-family="Segoe UI, Arial, sans-serif" font-size="24" font-weight="600" fill="#102a43">
        My Course Journey
      </text>
      <text x="28" y="88" font-family="Segoe UI, Arial, sans-serif" font-size="18" fill="#486581">
        Learning Python fundamentals, data structures,
      </text>
      <text x="28" y="116" font-family="Segoe UI, Arial, sans-serif" font-size="18" fill="#486581">
        control flow, and functions for data science.
      </text>
      <text x="28" y="145" font-family="Segoe UI, Arial, sans-serif" font-size="16" fill="#829ab1">
        Built as a feature image for my portfolio post.
      </text>
    </g>
  </g>

  <g transform="translate(790 430)">
    <rect x="0" y="0" width="208" height="64" rx="32" fill="#ffffff" stroke="#0f3854" stroke-width="2"/>
    <rect x="220" y="0" width="154" height="64" rx="32" fill="#052f3b"/>
    <rect x="36" y="22" width="20" height="18" rx="3" fill="#0f3854"/>
    <path d="M40 22v-7c0-11 8-18 17-18s17 7 17 18v7" fill="none" stroke="#0f3854" stroke-width="4" stroke-linecap="round"/>
    <text x="72" y="41" font-family="Segoe UI, Arial, sans-serif" font-size="24" fill="#0f3854">
      Upgrade
    </text>
    <text x="243" y="41" font-family="Segoe UI, Arial, sans-serif" font-size="24" fill="#ffffff">
      Resume
    </text>
  </g>

  <g transform="translate(1112 68)" fill="#143642">
    <circle cx="0" cy="0" r="4"/>
    <circle cx="0" cy="16" r="4"/>
    <circle cx="0" cy="32" r="4"/>
  </g>
</svg>
